<svg width="26" height="29" viewBox="0 0 26 29" fill="none" xmlns="http://www.w3.org/2000/svg">
<path d="M10.4 0C4.7632 0 0 4.55462 0 9.94646V14.5579C0 19.0217 1.32996 21.9283 4.05996 23.4101V26.4432C4.05996 27.4728 4.66399 28.3958 5.59609 28.7966C5.91329 28.9324 6.24721 29 6.57871 29C7.22091 29 7.8522 28.7497 8.3332 28.2765L12.1824 24.507H16.1713C21.591 24.507 26 20.0434 26 14.5579V9.94646C26 4.46102 21.5897 0 16.1713 0H10.4ZM10.4 2.6366H16.1738C20.1596 2.6366 23.4025 5.9151 23.4025 9.94646V14.5579C23.4025 18.5906 20.1583 21.8704 16.1738 21.8704H11.6594C11.3227 21.8704 10.9986 22.0025 10.7555 22.2411L6.65996 26.2527V22.5707C6.65996 22.0315 6.33384 21.5467 5.83984 21.3477C3.62854 20.4539 2.6 18.2966 2.6 14.5579V9.94646C2.6 6.05221 6.2452 2.6366 10.4 2.6366ZM14.3 3.9549C13.9412 3.9549 13.65 4.2502 13.65 4.61405C13.65 4.9779 13.9412 5.2732 14.3 5.2732C18.1311 5.2732 20.8 8.74691 20.8 11.8647C20.8 12.2285 21.0912 12.5238 21.45 12.5238C21.8088 12.5238 22.1 12.2285 22.1 11.8647C22.1 8.12336 18.8968 3.9549 14.3 3.9549ZM7.80254 5.28607C7.49281 5.23878 7.16519 5.31334 6.89609 5.52295L6.13184 6.12031C5.22964 6.82296 4.94177 8.06335 5.45137 9.09163C6.41077 11.0256 8.01832 14.0055 9.37422 15.2737C11.0408 16.8346 13.6593 18.6846 15.8615 19.5942C16.8248 19.9924 17.9277 19.7121 18.6037 18.9119C18.8442 18.6272 19.0689 18.3375 19.2639 18.0751C19.663 17.5372 19.5469 16.7751 19.0074 16.3809L16.575 14.6069C16.0524 14.2259 15.3223 14.3309 14.9297 14.8463L14.5209 15.3046C14.2505 15.6078 13.8434 15.7674 13.4469 15.6857C12.8281 15.5591 11.8471 15.1494 10.7148 13.9194C9.78014 12.9069 9.25555 11.8295 9.06445 11.0794C8.95005 10.6312 9.10825 10.1633 9.46055 9.86664L9.86934 9.52162C10.3464 9.12086 10.4401 8.41872 10.0826 7.90722L8.5998 5.78301C8.4048 5.50287 8.11226 5.33336 7.80254 5.28607ZM14.3 6.59149C13.9412 6.59149 13.65 6.88679 13.65 7.25064C13.65 7.61449 13.9412 7.90979 14.3 7.90979C16.2682 7.90979 18.2 9.86878 18.2 11.8647C18.2 12.2285 18.4912 12.5238 18.85 12.5238C19.2088 12.5238 19.5 12.2285 19.5 11.8647C19.5 9.15427 16.9728 6.59149 14.3 6.59149ZM14.3 9.22809C13.9412 9.22809 13.65 9.52339 13.65 9.88724C13.65 10.2511 13.9412 10.5464 14.3 10.5464C15.1385 10.5464 15.6 11.0144 15.6 11.8647C15.6 12.2285 15.8912 12.5238 16.25 12.5238C16.6088 12.5238 16.9 12.2285 16.9 11.8647C16.9 10.288 15.8548 9.22809 14.3 9.22809Z" fill="black"/>
</svg>
